HIERARCHY
ROOT Hips
{
	OFFSET 0.00 0.00 0.00
	CHANNELS 6 Xposition Yposition Zposition Xrotation Yrotation Zrotation
	JOINT Spine
	{
		OFFSET 0.00000 7.06766 0.00000
		CHANNELS 3 Xrotation Yrotation Zrotation
		JOINT Head
		{
			OFFSET 0.00000 15.03989 0.00000
			CHANNELS 3 Xrotation Yrotation Zrotation
			End Site
			{
				OFFSET 0.00000 4.52755 0.00000
			}
		}
		JOINT LeftShoulder
		{
			OFFSET 0.00000 10.53037 0.00000
			CHANNELS 3 Xrotation Yrotation Zrotation
			JOINT LeftArm
			{
				OFFSET 7.02886 0.00000 0.00000
				CHANNELS 3 Xrotation Yrotation Zrotation
				JOINT LeftForeArm
				{
					OFFSET 10.79770 0.00000 0.00000
					CHANNELS 3 Yrotation Zrotation Xrotation
					JOINT LeftHand
					{
						OFFSET 7.90744 0.00000 0.00000
						CHANNELS 3 Xrotation Yrotation Zrotation
						JOINT LeftHandThumb1
						{
							OFFSET 0.00000 0.00000 0.00000
							CHANNELS 3 Xrotation Zrotation Yrotation
							End Site
							{
								OFFSET 0.00000 0.00000 3.93700
							}
						}
						End Site
						{
							OFFSET 3.93700 0.00000 0.00000
						}
					}
				}
			}
		}
		JOINT RightShoulder
		{
			OFFSET 0.00000 10.53037 0.00000
			CHANNELS 3 Xrotation Yrotation Zrotation
			JOINT RightArm
			{
				OFFSET -7.02886 0.00000 0.00000
				CHANNELS 3 Xrotation Yrotation Zrotation
				JOINT RightForeArm
				{
					OFFSET -10.79770 0.00000 0.00000
					CHANNELS 3 Yrotation Zrotation Xrotation
					JOINT RightHand
					{
						OFFSET -7.90744 0.00000 0.00000
						CHANNELS 3 Xrotation Yrotation Zrotation
						JOINT RightHandThumb1
						{
							OFFSET 0.00000 0.00000 0.00000
							CHANNELS 3 Xrotation Zrotation Yrotation
							End Site
							{
								OFFSET 0.00000 0.00000 3.93700
							}
						}
						End Site
						{
							OFFSET -3.93700 0.00000 0.00000
						}
					}
				}
			}
		}
	}
	JOINT LeftUpLeg
	{
		OFFSET 4.01300 0.00000 0.00000
		CHANNELS 3 Xrotation Yrotation Zrotation
		JOINT LeftLeg
		{
			OFFSET 0.00000 -16.89976 0.00000
			CHANNELS 3 Xrotation Yrotation Zrotation
			JOINT LeftFoot
			{
				OFFSET 0.00000 -17.38918 0.00000
				CHANNELS 3 Xrotation Yrotation Zrotation
				JOINT LeftToeBase
				{
					OFFSET 0.00000 -1.27456 4.75673
					CHANNELS 3 Xrotation Yrotation Zrotation
					End Site
					{
						OFFSET 0.00000 0.00000 2.95275
					}
				}
			}
		}
	}
	JOINT RightUpLeg
	{
		OFFSET -4.01300 0.00000 0.00000
		CHANNELS 3 Xrotation Yrotation Zrotation
		JOINT RightLeg
		{
			OFFSET 0.00000 -16.89976 0.00000
			CHANNELS 3 Xrotation Yrotation Zrotation
			JOINT RightFoot
			{
				OFFSET 0.00000 -17.38918 0.00000
				CHANNELS 3 Xrotation Yrotation Zrotation
				JOINT RightToeBase
				{
					OFFSET 0.00000 -1.27456 4.75673
					CHANNELS 3 Xrotation Yrotation Zrotation
					End Site
					{
						OFFSET 0.00000 0.00000 2.95275
					}
				}
			}
		}
	}
}
MOTION
Frames: 13
Frame Time: 0.008333
 10.3324 28.1794 -18.0607 161.5978 -2.1330 -166.8853 4.2650 2.3135 -18.0069 -19.7229 -5.8049 2.5562 -26.8283 3.3396 0.6447 30.2411 -40.2374 -63.5457 -51.1120 -0.0000 25.7837 -0.0052 -0.6491 -0.4589 33.1476 -0.0000 26.2537 9.6830 -1.7345 5.6519 -4.0205 36.8910 70.2590 23.4957 -0.0000 29.9877 -0.4706 4.2309 6.3526 32.8623 0.0000 -24.3270 -52.1876 25.2461 -1.7553 72.0069 -0.0000 0.0000 -53.3305 18.4583 9.5024 25.9554 -0.0000 0.0000 -42.7807 -15.1112 -53.1681 -3.8211 0.0000 -0.0000 11.6236 -26.0616 13.1787 26.9909 -0.0000 -0.0000
 10.3389 28.1889 -18.0684 161.6290 -2.1650 -166.8992 4.2770 2.2956 -18.0191 -19.6962 -5.8153 2.5617 -26.8195 3.3475 0.6485 30.2090 -40.2278 -63.5759 -51.0717 -0.0000 25.7940 -0.0052 -0.6498 -0.4623 33.1476 -0.0000 26.2537 9.6883 -1.7457 5.6577 -4.0506 36.8966 70.2877 23.4728 -0.0000 30.0306 -0.4659 4.1725 6.3773 32.8623 0.0000 -24.3270 -52.1189 25.2088 -1.7734 71.9525 0.0000 0.0000 -53.2996 18.4518 9.4856 25.9596 -0.0000 -0.0000 -42.7131 -15.1449 -53.1597 -3.8025 -0.0000 -0.0000 11.4118 -26.0678 12.9119 27.1752 0.0000 -0.0000
 10.3462 28.1993 -18.0744 161.6464 -2.1818 -166.9164 4.2797 2.2949 -18.0328 -19.6745 -5.8327 2.5660 -26.7972 3.3588 0.6566 30.1521 -40.2181 -63.6160 -51.0287 -0.0000 25.8084 -0.0052 -0.6423 -0.4596 33.1476 -0.0000 26.2537 9.7517 -1.7449 5.6664 -4.1266 36.9095 70.3105 23.4516 -0.0000 29.9956 -0.4658 4.1925 6.3455 32.8623 0.0000 -24.3270 -52.0712 25.1811 -1.7720 71.9014 -0.0000 0.0000 -53.2757 18.4550 9.4670 25.9475 0.0000 -0.0000 -42.6421 -15.1515 -53.1322 -3.7727 -0.0000 -0.0000 11.2550 -26.0494 12.7925 26.9664 0.0000 -0.0000
 10.3543 28.2100 -18.0805 161.6600 -2.1970 -166.9413 4.2783 2.3076 -18.0394 -19.6397 -5.8532 2.5780 -26.7577 3.3593 0.6588 30.0857 -40.2179 -63.6535 -50.9764 -0.0000 25.8291 -0.0054 -0.6534 -0.4699 33.1476 -0.0000 26.2537 9.8526 -1.7595 5.7010 -4.1788 36.9852 70.2756 23.4727 -0.0000 29.9928 -0.4519 4.0960 6.3017 32.8623 0.0000 -24.3270 -52.0284 25.1525 -1.7609 71.8475 0.0000 -0.0000 -53.2561 18.4510 9.4359 26.0407 0.0000 -0.0000 -42.5793 -15.1668 -53.0937 -3.7512 0.0000 -0.0000 11.1976 -26.0373 12.8766 26.4425 0.0000 -0.0000
 10.3611 28.2206 -18.0851 161.6600 -2.2077 -166.9662 4.2614 2.3137 -18.0391 -19.6144 -5.8586 2.5848 -26.7973 3.3424 0.6538 30.1155 -40.1594 -63.6982 -50.9751 -0.0000 25.8801 -0.0049 -0.5953 -0.4756 33.1476 -0.0000 26.2537 9.8850 -1.7608 5.7093 -4.1850 37.0342 70.2622 23.4681 -0.0000 29.9634 -0.4528 4.1162 6.2828 32.8623 0.0000 -24.3270 -52.0024 25.1270 -1.7476 71.7923 0.0000 -0.0000 -53.2283 18.4479 9.4330 26.0051 0.0000 -0.0000 -42.5331 -15.1674 -53.0550 -3.7106 0.0000 -0.0000 11.0708 -26.0308 12.7948 25.9313 -0.0000 -0.0000
 10.3681 28.2314 -18.0895 161.6605 -2.2166 -166.9790 4.2437 2.3183 -18.0577 -19.5925 -5.8523 2.5975 -26.7811 3.3557 0.6776 30.0556 -40.1426 -63.7594 -50.9356 -0.0000 25.9326 -0.0050 -0.6108 -0.4709 33.1476 -0.0000 26.2537 9.8585 -1.7373 5.7077 -4.1356 37.0429 70.2680 23.4699 -0.0000 29.9306 -0.4565 4.1711 6.2519 32.8623 0.0000 -24.3270 -51.9695 25.1058 -1.7454 71.7359 0.0000 0.0000 -53.1987 18.4462 9.4091 25.9763 -0.0000 -0.0000 -42.4855 -15.1543 -53.0216 -3.6726 0.0000 0.0000 10.9352 -26.0274 12.6665 25.8885 -0.0000 0.0000
 10.3757 28.2421 -18.0966 161.6866 -2.2362 -166.9840 4.2605 2.3290 -18.0840 -19.5925 -5.8940 2.5856 -26.7879 3.3296 0.6765 30.0490 -40.1146 -63.7912 -50.9167 -0.0000 25.9510 -0.0050 -0.6102 -0.4711 33.1476 -0.0000 26.2537 9.7977 -1.7294 5.7037 -4.0742 36.9947 70.3105 23.4814 -0.0000 29.9323 -0.4590 4.2097 6.2280 32.8623 0.0000 -24.3270 -51.9019 25.0858 -1.7526 71.6768 -0.0000 -0.0000 -53.1686 18.4311 9.3801 25.9939 0.0000 0.0000 -42.4643 -15.2097 -53.0138 -3.6739 0.0000 0.0000 10.7837 -25.9923 12.4518 26.0756 -0.0000 0.0000
 10.3835 28.2532 -18.1020 161.6896 -2.2373 -166.9879 4.2569 2.3479 -18.1160 -19.5907 -5.8899 2.5987 -26.8019 3.3236 0.6933 30.0491 -40.1035 -63.8208 -50.8916 -0.0000 25.9458 -0.0048 -0.6192 -0.4482 33.1476 -0.0000 26.2537 9.7988 -1.7387 5.7136 -4.0827 37.0158 70.3278 23.4768 -0.0000 30.0118 -0.4654 4.2355 6.2766 32.8623 0.0000 -24.3270 -51.8621 25.0788 -1.7447 71.6165 -0.0000 0.0000 -53.1324 18.4338 9.3579 25.9693 0.0000 -0.0000 -42.4399 -15.2118 -52.9842 -3.6560 0.0000 -0.0000 10.7734 -26.0679 12.4940 25.7481 -0.0000 -0.0000
 10.3912 28.2647 -18.1075 161.6892 -2.2341 -166.9943 4.2575 2.3729 -18.1445 -19.6115 -5.8625 2.6082 -26.8175 3.3197 0.7020 30.0396 -40.0841 -63.8522 -50.8657 -0.0000 25.9821 -0.0049 -0.5962 -0.4668 33.1476 -0.0000 26.2537 9.7970 -1.7556 5.7288 -4.0795 37.0397 70.3382 23.4856 -0.0000 30.0672 -0.5050 4.2998 6.7053 32.8623 0.0000 -24.3270 -51.8276 25.0747 -1.7287 71.5598 -0.0000 0.0000 -53.0986 18.4308 9.3196 26.0273 -0.0000 0.0000 -42.4211 -15.2127 -52.9512 -3.6304 0.0000 0.0000 10.6521 -26.0324 12.3585 25.8460 0.0000 -0.0000
 10.3960 28.2755 -18.1122 161.6937 -2.2308 -166.9815 4.2695 2.3950 -18.1898 -19.6312 -5.8850 2.6049 -26.8401 3.3104 0.7173 30.0394 -40.0811 -63.8765 -50.8573 -0.0000 25.9707 -0.0050 -0.5737 -0.4955 33.1476 -0.0000 26.2537 9.8209 -1.7745 5.7387 -4.1232 37.0411 70.3638 23.4875 -0.0000 30.0232 -0.5172 4.3444 6.7957 32.8623 0.0000 -24.3270 -51.7767 25.0784 -1.7411 71.4961 0.0000 0.0000 -53.0685 18.4318 9.3030 25.9996 -0.0000 0.0000 -42.3856 -15.1865 -52.9451 -3.6089 0.0000 0.0000 10.6207 -26.0155 12.3600 25.9083 -0.0000 -0.0000
 10.4028 28.2852 -18.1177 161.6824 -2.2489 -166.9801 4.2333 2.4006 -18.2283 -19.6118 -5.8706 2.6278 -26.8258 3.2959 0.7352 30.0256 -40.0713 -63.8988 -50.8306 -0.0000 25.9691 -0.0053 -0.5917 -0.5088 33.1476 -0.0000 26.2537 9.8806 -1.7664 5.7673 -4.1606 37.0271 70.3566 23.5059 -0.0000 30.0224 -0.5143 4.3453 6.7570 32.8623 0.0000 -24.3270 -51.7489 25.0692 -1.7495 71.4382 -0.0000 0.0000 -53.0405 18.4281 9.2896 26.0288 -0.0000 0.0000 -42.3705 -15.1857 -52.9369 -3.5883 -0.0000 -0.0000 10.5716 -25.9962 12.3581 25.6528 0.0000 -0.0000
 10.4108 28.2944 -18.1223 161.6781 -2.2535 -166.9878 4.2213 2.4129 -18.2516 -19.6193 -5.8578 2.6340 -26.8301 3.2910 0.7556 30.0219 -40.0827 -63.9093 -50.7913 -0.0000 25.9347 -0.0057 -0.6401 -0.5066 33.1476 -0.0000 26.2537 9.9225 -1.7708 5.7809 -4.2277 37.0135 70.3953 23.4742 -0.0000 30.0105 -0.4738 4.2123 6.4233 32.8623 0.0000 -24.3270 -51.7242 25.0627 -1.7350 71.3890 -0.0000 -0.0000 -53.0073 18.4044 9.2721 26.0175 0.0000 0.0000 -42.3574 -15.1887 -52.9142 -3.5704 -0.0000 -0.0000 10.5459 -26.0296 12.3586 25.9447 -0.0000 0.0000
 10.4180 28.3028 -18.1268 161.6649 -2.2686 -166.9916 4.1902 2.4089 -18.2772 -19.6117 -5.8478 2.6339 -26.7992 3.2948 0.7714 30.0030 -40.0922 -63.9077 -50.7687 -0.0000 25.8891 -0.0060 -0.6764 -0.5108 33.1476 -0.0000 26.2537 9.9348 -1.7718 5.7874 -4.2514 37.0191 70.4205 23.4400 -0.0000 30.0477 -0.4757 4.1984 6.4703 32.8623 0.0000 -24.3270 -51.7075 25.0560 -1.7319 71.3406 -0.0000 -0.0000 -52.9918 18.4058 9.2487 26.0432 -0.0000 -0.0000 -42.3415 -15.1851 -52.8994 -3.5534 0.0000 0.0000 10.5136 -26.0263 12.3095 25.7851 0.0000 -0.0000
